<mxfile host="Electron" agent="Mozilla/5.0 (Windows NT 10.0; Win64; x64) AppleWebKit/537.36 (KHTML, like Gecko) draw.io/27.0.9 Chrome/134.0.6998.205 Electron/35.4.0 Safari/537.36" version="27.0.9">
  <diagram name="Page-1" id="WAKq2qWOjsyrPDUOPZ49">
    <mxGraphModel dx="1426" dy="849" grid="1" gridSize="10" guides="1" tooltips="1" connect="1" arrows="1" fold="1" page="1" pageScale="1" pageWidth="1100" pageHeight="850" math="0" shadow="0">
      <root>
        <mxCell id="0" />
        <mxCell id="1" parent="0" />
        <mxCell id="tzWKhkAwh7brusfRxdNy-1" value="" style="shape=image;verticalLabelPosition=bottom;labelBackgroundColor=default;verticalAlign=top;aspect=fixed;imageAspect=0;image=data:image/png,iVBORw0KGgoAAAANSUhEUgAAAS0AAAE5CAYAAADFpHZjAAAAAXNSR0IArs4c6QAAAARnQU1BAACxjwv8YQUAAAAJcEhZcwAADsMAAA7DAcdvqGQAADKTSURBVHhe7Z0LeBzVffbf1c2SbEm2weAbGCxHBgsKikEYEichsVIRVBI9Kh80aUNUSERQa0Haxo8gpC200WeaQOTWgJNQJzTNk6bRp698anCQG64BIy4KMQJbtmwLW74J3yTrrtV+55w9s5pdz+7OSqvdGen9wfHOzpydHa3Oeed/js7+X49vuNMHQghxCSn6MSKLl63RW5FhPWtYzxrWs4b1rDHqMdIihLgKW5EWIYQ4BYoWIcRVULQIIa6CokUIcRUULUKIq6BoEUJcBUWLEOIqKFqEEFdhS7TcslI2GqxnDetZw3rWJLteTCviD3V1i3Icg0PDes/0IHNWBpYuuUCUBXoPIcSp2BKt3rP9+K+mV9Cxr0vvmZ7kL1+Cz5d9HDlzsvUeQojTiCpaUrCe/NF/ob9/UO+Z3mRnZ+Luuz5P4SLEoUQVrZ/+/LlAhCU78mUrl4mOPUs9j8bfP/w7vZUc/vbBq/VWZPr7h7Brd6cSaImMuP709s+qbUKIs4goWnIO66mfNKltKVj3fK0cmZkZ6rkdPBlb9VZy8A1X6q3oDA4O4/EfNAaE6847yjjHRYgDiShaO1ra8OvtLWr72tWX43N/aG+W38AQrVjEIx5M9H1/9esdeOOt99X2H64rxpriQrVNCHEOEZc8mP9KaHdI6GbMP+N0+wspIdMFLi4lhLgKihYhxFXEVbTcsqI2XkyXn5f1rGE9a5JdL+JE/Asvt+LFl/3LFj659mp8am2R2raL2ybiJ/vzEkKmHg4PCSGugqJFCHEVFC1CiKugaBFCXIWzRWtbLTz3PK+fEEIIIy1CiMugaBFCXEVyREsO+zKW+Ysc/oUMA5+9pxzf36ufvLsJNxh1M2rxrN5NCJmZxFW07K5sPe/2n+Frz3TCNyzK4zfqveey+Cv/V/xbhqdlPVH2fHcXHt50wH/QRLxX3tol3u/LetawnjUztV5cRetw5w69FZkTb34bO2/xR083WIiQweEffwG4YjlW6OcrCi7Da7v262fj2H1fu/XsEu/3ZT1rWM+amVovOcPDFXfiVRU9/RhX/vJ/YIwE/RzA7nf1Zgh723fh+ssu1c8IITORpIjWs/cYc1Rfwc4//gxWlFbhsXe/ovfdh1/oeoofGfuX4SO71uPV9ZfoA4SQmUhSROumx/V8lih+EboE975k7GvEqy814l45JiytC9RTJcL8FyFkZpCc4SEhhEwQihYhxFVQtAghroKiRQhxFRQtQoiriKtouWVFbbyYLj8v61nDetYkux5zxJtgjnhCnA+Hh4QQVxFRtDJnZegtoL9/SG9NX8w/o/lnJ4Q4h4jDw0Nd3XjqJ01qO2dONu75WjkyM+13ZmOYlixiGR4ODg7j8R80ovdsv3p+5x1lWLpkgdomhDiHiKIl+enPn0PHvi61LYXrspXLkJ09Sz2Pxt8/7J8fShZ/++DVeutccvKW6i1CSLJZ/Qf2A4SooiUjjyd/9F9i6DSo90wPysrKUFBQoJ8RQpJFe3t7TKIVdSJeRld33/V55C9fovcQQkjyiBppmZFzXIe6jmNwaFjvcS9yeJjISGtsbExviTtFCv9oS2Y2sj8Y/SDWSCsm0ZpOvPX7booWIUliMqJlq/e4ZaVsNOzWI4Qklt7ePgwMDGJkZFQJms93bixl9F9GWgmCkRYh44RGWjlZvcjOzkJuTg6ysjKRlpYKj8ejjofC3kMISTp793bi0KGj6OntFdHWiGWkZUDRIoQknSNHj+PkydPo7x+A1zs+KrGCokUISTp9ff0YHBrC6KhXRVlTFmnt3VQecMoZL4YL9POoEs+tfQ1Dj/mfn3uuZajapqsIxl18rI9Pazo2Y926zejQTwmZThiT75HEymDCoiUF5CN/DTz2nsktZ/hFPLZmF3YHGxna5vrvvmg6l3SU/ih+cIthkS/9EL+IX51z3OXCJcUoNxe5QWUdNodTJ7N4hROyc85Zg2Z9KGHYuU5CJsDERGvvU3j4R1JkHvNbfQWQVmDa/isOrPhcGa7H2/jFr2REJs9dh5v8hxQr1q/H18TjD5553r/DrRTXobWnBz2Bsh3V+fpYKPnV2L69GuEOBzCfswGoSKZo2L1mQmwwQdHai9fEw5UFiTFODf8+l+JyuXTj3X0hLtXTBHPEVFSLFmOfEqAObK4S+1pqUSSOrwsbmglKylDZ0o59+rWba0zRl/k9zPvW1aBmnbE/FzVGqBZUX0eE55w35Noeemg80rJ6vdq9Tu8TJZkCSxzPxERrxQoRAU19hPPsow8JcfwivlCqd4Sy93/wC2nvf8VyxCm4Sw66cwd32mbUCKEqbNDRUmsdinV1P/mo3iL26Yhqe9jQTArCRmwtLsBy+US8V3uZPGc9SkLeo7WuDRWGOrW0oWCLfu+GSmytkGIk67djg9ynrqkcjVVaYILOG3JtXzpPnRLhXi+ErKq2EA16f0OhEFj9CkJCsSVa56wkX3Ennv7uR8ct6+/xi5f9lenf0FvBvPbXnwyaZP/cjzLw2HvBQ0IzflEDsv9PrX9HFBy7Ij50eCiHUh3taBP715foOrFiEsKixnK0GsMz8zlD3iO/tBzFW5uEtAiKy1Fq6KCM1NCG9udFfWxFhSGuMvqTEZysY+da5ftZvT6/AIVqvz/SK6mXwkdIMEb/tSVahztlOBPMivWN4xPil21SInPkyBHxaPz1MDyHOx/VW8GETsT/6q5h3LcqzET7tlohauLxrh+j7+i512eF1c8xbTELYTznk8znVSVGgbF8fQnq1XYZmpSg6WEqISaM/jux4WEIAQF75ovi2c/wsOUyh9i56fEfW0+0730KN9zyM2DNt7Hn8Rv1zmmGjD5aGrHNmPPZ1uif0wrFiHQmgnqPWmzSCqHeo7LsXBFqbhLDSxF53RhcPyqh1xbyfgHE8LBGTW5J8WpFXbGI6jipRcIQF9EKUPpZJTKv7drvfy4wb8eH51G1yj/X9auX7nT3XJaBaSjnL3KCWnTghkLUFvn3VbUXhsxpCfKrsaHSP9yKOBEfFvEerXVoq/C/R5GcV6rXkmW+pgqgQUVrwfVVCTdpbr62fz+hd4Z5vRAz8YPqfUVoLN8S/q+nZMYT3y9MywhICArEMO/V9ZeotVyfe1dEQ6HiIoZ2HhEpfe2ZTmxRk+xycelXsFO/LkDI+Yx6P5AR1iQFi1+YjoD8C18VsIXLFMgUEfqF6ZdfeAYXXbQYl63Mx0VLF2P27Cykpqaq46FMrPdI0Tln7uoAvv/n/gjoQS08N33j27h+x0P4ctBwUQiPHtr9Tbi/CipCzxc/wSKEuJcJRlpCUD7xSdwXOq9tKShabPQzxV0/hi9oLsqijsR8Ph11yb8WWjEetdmDkRYhyWMykRbzaSUIihYh4yR+eEgIIUmCokUIcRW2RMv+SvfpUY8Q4jyM/mtLtOyuJJ8u9QghzsPovxweEkJcBUWLEOIqKFqEEFdB0SKEuAqKFiHEVVC0CJlJ6NTYbs78Q9FKNkbO9EASdj/NMt/6VDeu5prxFDEW1+AaLDtiBzabctybS0xpfJzcycP9/uJxzaHn0O/lhCZC0XICxZWobNs4bhsmGszGtuJz82fFEWUkIfNkmbKINkCnWp4W5KN6u/7ZZH59U8bUSPn03ULcf3+RhE4eq2hDXWsPjHRrycSWaDl9BXu86yWeApSVA406TWnzploUlosdBrLRBO6oJsecoLTEzagJOmbUt/JQ7MC2RohGGJwqOZCbPdz7mRx6aprHIxl19w05HtgvCXs+w8EnUn0rxx9z/RhciSRW51afnem1qo48FuO5E0ak35+1E1KQA1MsyM+iqBHlrRFs7RKE0X9tiZbTV7DHu14yWF69AYW1m9AsGsnGtjqsD6TZCeOYozODNhmtUKZEVqmSIzjmGHRsQ2NLIQosG2GY95MYDj3KnUdmCdTbG/X5wzr4hDuf4eBjPk+E67esb9+VyP+zWZ3bn1EV8vMXzzZXGZ00lnMnkIi/PwsnpMDnFixy0WlElUMES2L0Xw4PHUMJymR6YtnBN5gyhkZwzCkpEx1Xq1ZzkwjfZaVwjjeqlgnDUiwUOw49ywtEpzBty2OScA4+Yc9ncvAxzhPp+q3qx0Kkc4ubwBYpqG5J9xzu92eF+XMLQoh40GcxnmJbpchuAcrrClEbetNLMhQtB1GyXtwhRVcvs2xgFpSsR12bFIBmNLWZBEM00nMdb0yEmGY4jmjXPxkinDu/oFBvOZy4/f5EhGl8DqHzfjJCkzeh6nq0ljeiKDB2Tz4ULSch7eMtBSacY04+Ssvb0FTThLbyUn90Fs7xJogSCH1EbVHwHEdzjXge8f1iIIyDT9Tz2bp+C+y4EkU8t4g61MR2gximVwXPA9o5d0KJ8PvT2/G85vzqLeLmWOGYOT2KluOJ4JgjkMOttq3AhsB4xp5jTn71dv/8klFHlApIMYn8fhERghDNwSf6+exdfxC2XYnCnVsOk+QFyxuGqKNckLQA2D53Ygn/+1MHLZyQJoP8S6wU8yJHfAZMt5wgpn26ZflXJjr4EJsw3TIhZMZA0SLxQc7HMcoiCYCiRQhxFbZEy+kr2ONdjxDiPIz+a0u0nL6CPd71CCHOw+i/HB4SQlwFRYsQ4iooWoQQV0HRIoS4CooWIcRVULQIIa6CokUIcRUULRI/5Jemo2VkIMllGvyObImW01ewx7tewpENyZRiJGr6jylseMowIdq1UJycQSLdeCRJ/r0b/deWaDl9BXu86yUWmbdc5uE2Mmk2oLA9OSnnpGAVNZabMnu2orx927mNlF+OTjoJdeNxCEb/5fDQEZhNCkpQbyTJkw0pcCc1nGOiOMQEvUYnstMN0tL5JkAzNtUCdVvMYpSP6nrxPOj14pzmBm5+P5lnXL2OTC0JdONxIBStpKMNLWSnD1KScM4xkRxi5Gticb4xoQwtTHnmQwm83txRgt9P5RnXR8gUkjA3HmdC0XIAJfW605c1+SMWKTR2XXXMRHTSicXJRtytDf9CI6Iyv94g5P1IAkmEG49DoWg5iZJ6IV4NqDQJTTjnmLijTB8MhxeZE1y8HyMnZxL0u5oMJZHdeBwKRSvZyDkh87BQRS/iLhrNlcYq6gp5TWxOOtrhJRaPu5DOo97Pv0mmlAS48VgIo/r9FhaY5jyTA0Ur2eSXorytwh+iqzC9EeVqMjyCK01Yh5jg18TkpCNQDi/S4854PzFkgGFNZonhXOOvX9VeyMgsQUy9G49sS+Vo1L9bWdRflmNoT1MF3XgSxLR34yEkBujGQwiZMdgSLaevYI93PUKI8zD6ry3RcvoK9njXI4Q4D6P/cnhICHEVFC1CiKugaBFCXAVFixDiKihahBBXQdEihLgKipYFPh/g9XoxJjckHg88KSlISU1Vq3SNIlfyEkISC0XLgjHfmBIs35j/UamYBWlpaXqLEJIobImW01ewx7ue/E6UKubISjxXRW4LsZJF1jGOp6en61cTQqYCo//aEi2nr2CPdz2PGA4GRMokTLIoodJF1tMv8D8S4nTMqbJdhtF/OTy0IBBpyaKFShYpUsajUcyCNinCOasQEo6pdOMxcGC7pGhZkKLFSQmWSaBCBUsWJVha1CZK3J1VyLQnEW48Tm2XFC0LDIEyC5a5qGNapMz7J0YkZxWB2e0myF2nBjVGHndR/DdAf2738ZuhzAFuuPiQ6UMi3HiitMskQtGywCxEoUUuhRgYGFDF5/MF9k+YiM4qkdx12lCwRd8BpbtOhWyQ+ajeILabdJ3mJmyt3IAgwx7ifhLhxhPxPZILRcsCsxAZ27IMDg7iyJEjOHToEI53d+OYKHK/MWycMOGcVSK665jsvkrKUIk2tMuISm7rOs1NW1FZluz7IpkSEuHGE8t7JBCKlgWGAJmFSEZYH374IY4dO4ZLL70ETduexSfXrsXo6Cj6+/sxKo5PiLg5qxj4fRSbmpvRtLUS1KxpSNzaTAQ3nm9fH+d2GT8oWmEIjZxkTmspTnPm5OCRx+rx9bu+ilOnTqGzs1NFX7v3TPS3G8FZxa67jhwGmiKvEnHCtooKtNWttz8cIC4iAW48dt4jSVC0LLCKtDyeFKRmzMJvXn4R9//NXysB2717N/Lz89E/MADvyJCuGTvhnVUiuOuYQnn1F57tJjt76fBTXIzysHbRxO1MvRtPlPdIIrbceORKVDsLM91Uz64bT0ZGRmDOShZju7u7G62trTjv/PPFENGLVZdfpl9hTVzdeORfD6uALWahMiPX1mwsQGu444QkmYm48Rj911bvsSMIkulSLxRDsGQxSEtPR9/QCLIys6IKVqJRE/AbKFhkemH0X/oeJgj6HhIyDn0PCSEzBooWIcRVULQIIa6CokUIcRUULUKIq6BoEUJcBUUrCjKTg7FcwbxsgRCSHGyJllyJaofpUG94eBj3338/7rvvPjz11FN44YUX8OKLL+L111/Hc889h5deegkbN27Evffei0cffVS/ihAy1Rj915ZoOX0FezzrvfPOO+jr68Ptt9+OhQsX4sCBA6q899576ovRHR0duO6663Drrbdixw5770sImTxG/+XwMASZambp0qVYvXq1EqfMzExkZWWpkp2drcqaNWuwdu1aDhcJSQIULQuM7xnOmzcPt912myoy8vKXPxECli0rKeEyfy9RFkIcTTxNL5IERSsCoYLU09uLU6dPq8ezZ8+i6u67MTQ8rMrwyAi6urr0K2MgKAe8LBPMVzQNGiOJkal04znnHNJ/wBl+AxQtC0LFyigpnhSkp6fpko70tDTlMm08TviL0KaMkT0NQAXFh0Rhyt14ZE42mDKXypzxYo8TUrRRtEKQSxwkVqIlXaWlOKmSmjq+rQVM1pk0Mse7zjqpGmbgTjp+lwvarxpaiAOLrBgUwdGRZ3qRCDeefJSWA42Gau1rB8pLHZHuiKIVgpyIl4QKloyi0tKEUEmxkl6HJvGadKRlomPzRmzVhgIyc6RxF+1pKEStzLssxKhKZjA17q6FUuBCHFiq96GmqB0bjNe2intmFaO3aUMi3HgE+QWFaGn3J22WOdoKHWLNQ9EKQa7Tsoq2pCCpIgXLEC5djGOy3oQwpU4uaiwfzzhqjpYqtgJt7eiQeeMhU+n675qWPnTSxUfV0a9VTiuTzRlOHMVUu/HI0Dzg7NSB9jbnmKRQtEIYHPLnejcEKEiwRJFu0mahksWo453oEgjznJZZsIoaUd5qREvi7qkqGw4qZWhSDSxMyG8+pyqx3WWJg0mEG48yy5TOTm1obxaRXWHyc8Mb2BItJ69gl8Sz3pAWLTNSlELFy9hn7JfR2dDgoH5FnDA57CgnHrWxGTVqgko2uFbUFWu/Q4kRTYW4+JDpRiLcePyUlBWitqIWhQ4Is4z+a0u0nLyCXRLPelJ4jEWjUpDMGAJlFixZ98yZHnR1HVKu03FDOqoUjofrVe2F/khLCJJorf6QPrcIjeVb/A7SZgeWzcuDXHxU4V8kpxWJcONRKCNgZwwNjf7LHPEhyO8b7tq1Cw888EBAmIzoSjYMNaeln8si12uNjAzjxZdewmc+/Rl9lnMxr56XryNkJiP7g9EPYs0RT9EK4f3331dflpYCNWfOHLUeS/5lUIrXk08+ec58VucHnTiwfz8++tHV+gzWULQIGYeiNQEm4sYjxev06dP6mf+Dl99NlN6I0aBoETLOZESLvScG5BouGX0ZRUZjdgSLEBI/KFqEEFdB0SKEuAqKFiHEVVC0CCGuwpZoOXkFuyTe9QghzsPov7ZEy8kr2CXxrkcIcR5G/+XwkBDiKihaEeh58028fOWVOLF9u94zzonmZnVM1iGEJA6KVhhOCzHaeffduO6uu3Dw8cfRLUTKoPu559D56KO4rqoKu7/1LVWXEJIYKFpheP3LX8aya67B8PHjWHHNahz64T/j/V/+Eu/+x3/gg82P4iNrrsPwkSNYdcvNeP2OL+tXJQiZa4tZG0gsTKM2Q9EKw1WbNuEdMSz88GgXTu7bjwuWXILXnnoCb/34SVywLB+nDh7CqTOn0Na8DVfVb9KvmgDm7KS6GKYqk4LCNn2ZqjbjEihaYVi4bh2KnngCe95+Hf0fHkXP3v24Yd4CrJm7AANHjsOXk4U9rS24qPo+VXdSmLOM6jxYM6kRkgkwg9sMRSsCi0tKcPnGeuzftxsjfWcwdPQ4Bk/14PSxo/jds89g5d/VYdFkBSuU/Gpsl41wo46Sgu6qFq46lsfpzjOjiLXNuByKVhRkQpnh0VGM7HofI2++iZFXX0X6QdEKPCnwagOMuKPSJct0uc1RXHXCHac7z4zDdptxP7ZEy+kr2ONdz6CzuRlv1dyNwjN9mHd2CLNys5CZk4m8E2dR2NOPt+79uqozZURz1bHrukN3npnDNP5dG/3Xlmg5fQV7vOtJDggxeuVP/gRrewewoHcQc/Lm4NHsbHw3JwdzcueIfQP4hCit31iPAxbruCaFbHiGRVQ0V51oxw3s1iPuJJY241KM/svhYRj+p6YGNw0P48KePmTPzcUjc3Lw9Yf/N+584O/wqLiDZefl4oIzZ3HjiBcvfOMb+lXxQIb3tSjcUI38aK460Y4bd9ho9YjLiaHNTAMoWmG4+emn8d9z5uDkkkV4QojUH3/771B8221Y+2d/htINtfjh3DycmDcXzRkZKP3Xf9WvmiB6wtw/cboRBa09qFe3xpIorjoRjtOdZ3oz4TbjfpgjPgJH33wT2+68E4Xf+hauvfVWvddPyy9+gZ1138HNP/wRFl5zjd4bHuaIJ2QcGltMgIkYW0wGihYh49DYghAyY6BoEUJcBUWLEOIqKFqEEFdhS7ScvoI93vUIIc7D6L+2RMvpK9jjXY8Q4jyM/svhISHEVVC0CCGugotLE4R5cemRI0f0FiEzk0WLFnFFfKxwRTwhyYMr4gkhMwaKFiHEVVC0CCGugqJFCHEVtkTL6SvY412PEOI8jP5rS7ScvoI93vUIIc7D6L8cHlqQsncv0pqaAsXT16dK9uc/j8zqaqTs2aPqmeukvPOO2kcImVooWhZkfelLSH3xRaQcPKgKRkZUOXvr7Ri+6FL4LrwQ8HoDx1PfegtZVVXwfPihPgMhZKqgaFkgRWns8svhXb0aw1//Onxz56rS+okv4vmb/gK+3FwgNVUdGy0thS8rC2OrVikhI4RMLRStMIzccQdS3347MOw73uvB7uPAnr4sfHDKo/Z5jhxB+k9/iuFvflM9J4RMPRStCAzffTfSnn8eKe3t+NmbHlwoAqzLFwI/bfHAe+IUMv75nzH04IO6NjmHjs1YR6syZzENficUrSgM33sv0hoakDnSj+JlPnxsuQ9ZaT7MqqvD0He+o2tNAtmIAv51/lITb6NNc0OdTKON8bUd2xqB8lLk+59h8zqbHnxJul7X0VwT1G5yjYYTj59bnsN8blHi3i4nCEXLBsO1tUjZv98/0e7zIWX3bgw+8og+GgfMNubaaHPKGkh+NbZvr9ZCMrXsa5eapd+pYxsaUSn+a8S2WHpTAq/XTXRsXofcCqDBZH/fgCZMuNlYCV0i22UMULRsMlZYiIwnnlBLHsZWrtR7pwDZSWUD2WiKNAJ3u3XYrFuVarQW+5VFemC/bGQiwqmqRYt2JF730EP+xqnOW2Nq5PJ1/ufW5w45j9wZ5tr8NKNpayEKApolo671KCtsQWOQajnlet1EB+THWddaD2UqrSmpl8+tP7/NNfJnNn9+MRLaLpOILdFy+gr2eNdLOvkFKGxpxz7ZMYvasSFwtytHY5W/0eRXbw/cYXsaClG7SXVfMQRTt9/AsfqSfFRvqUOxvmtu/9J56i1kI5S2+U1GK25uwtbKMtUJrM8dcp7qfWGvTWE6n9HJZNRVUlaJlsZtup6DrtdNyKi1ZfyGEIzF5ycErL1M/tzBIhczgXaZHIz+a0u0nL6CPd71rEhpa1NLHAY3b1bDw4TQ0Y42bEWFER0UyTuobjTmqKFiK9DWLqIROQSrw3qbLVMKyFatAs1NbagzXmh1bv+RcSJdm6C5aSsqy4zzyesqhxoplpShskUPER10va6juADL9WZUhIBZf8amKFd9Hv7oTD5f9+8ndB3nYPRfDg9tkFFXh7FLL4Xv/PMBj0cNDzOncpmD7GBGo9R3zEAkIe+WspMWCRlo1ftE2F6sXhgjJetR1ybnQcRQrk2LSizntro2daAD7W3FKNC9Sg4NxztEhZCO0CGiTabsel2GinhinBu0pAT1xmchPzfT5xOIcM2Y22USoWhFIeP738doRQUG07Px5gce7DjgwYDXg6HaWsy6/35dK57IIWEtCjdUI181zlqo0U4oxbrTCpQoyI38UhHPhKlvGVXko7S8DU01TWgL/JVPYHVuA+M8ka7NHFkJAdvW2IJK0xCwp0EPEZ1yva6jBOvrgNqi4Dmq5hrT87hHkaZ2qfckC4pWBDKefBKjN96IsYIC3L7ah8OnPdh5xIMviu3U8+Zh+C//ErMefljXngSmsDw3dyMKRNRQr0IAcSeUk58VxjFR5KS0nN8pHH9NVXuhji788xnm+uqvPXo+SA6NQsP+/NJytIkR1YZq3RTDnltgPs/m5dbXJqr5J921qFgNAQNDRGdcrxuR83itdW3jw11RKqDnECN8fjERtl0mF+aItyD7llsw8oUvYOyKK+AtHh9s7G5+FwMne3H1bdfrPUL19+9H2n/+J1J37cKgGEaq7yVaMJNyxDfX5KKpzBkNnDgT5oiPM57jx5EiREh+jUdGW54zZ5DS0YErf16PorbnkPrKK2q9ljyW9utfwzM4iJT33lPfRyRyqUMljDl4QuINRcuCgX/7N3jXrsXYkiWqIC0NY/n5GLvtVqRdvATej3/cPyGvj3uLijC4ZYt/on7GIyd3XTrBTVwBh4cJghZihIzD4SEhZMZgS7ScvoI93vUIIc7D6L+2RMvpK9jjXY8Q4jyM/svhISHEVVC0CCGugqJFCHEVFC1CiKugaFkwPDyCEydO4tixbnR1HcEHHxxEZ+cH4vEQDh06jP7+fl2TEJJoKFoW9PcPICsrC3l5OViw4DxcdNFSzLlgBVLmLsfFyy7GqVOndU1CSKKhaIUhLS1VlDSkp6fD60nH8dODyEsbwM6uMZwcmaNrAd7xhe6EOB+Zf8zF2S0kFK0wyK8QyCJF641OYFHOCFJSfFg+fxRLF+RiR2c6TvZ7sOODNLyyL01+f3pimLNuqmIzd7ndxjcNGikJQ0LdeJyTU9+WaDl9BXu8640JARpDKjIyMtDdn4bZnj6V1cEnD8CH2bOAay/24uxIqhKrObN8eOPgJDI8mDNqytzlIcndCAkl8W48yW+XRv+1JVpOX8Eez3pnBoDqhkxs3ZGCdCFav/79oIiyRoVUSbkS/4r/pb+0LBfPA65ckoLRsTH8/pCsEQdkhk29qQi64xmN5lynmZnnSDOTSYYbT0i7TAJG/+XwMISfiM/Fk5KC3+z24Te7xlAw9wxGRrzwjori9cEroi2vzz+RlSrqNb8/hl4hdD0DYypCmzTSZSaQh1unuNWpilWmSn9qzxCnmXyVydK4484IR5qZjMwGm2g3nqB2mVwoWiGsvxG4YpEPj/9pNl5sO4PzZ3tl6iyVP0tm0khN8SBNz3d1nQYuyvPimd+P4f/t9OG7E72NmdPabixAq2FOqowExlMVy1TDxVvDDAHMEdRMcaSZySTCjSdcu0wyFC0Lzp+Tgtc6vCjJ71MCpf6SmJoSmJyX22lpKfiPN0ZRfIkPd68Fbl8NfPOz+gSxou+KyhFlIiIiBWumOdLMZJRJRwLceCbbLqcIipYFH8v3oL+vF8/uykTr4XS/SCmxkgLmF6/nxfCxdNWYmttaeaEHVWvl1iTJr8b2BohISM89hDjIKKeZgAGqwNyQZpwjzUwmwW48oe0yyVC0LChcnIKVSzJxxaW5uPTCbPzTb9JxuFcKl1+8xsTH9ts9Q0Ks9AviSUm9dlmRk+TBbjxFtYVoMNwizI4r20pnpCPNTCYhbjxmgtql3pckmG45AnLhqNAptazhv3f68O4R4L7PZuJff+vF/yoaxXmzdUUbMN0yIeMw3fIUIQVLIifiy/7Ag3s/DTz920FcnDcSk2ARQuIHRSsGMtM9+OrHPbj5yjjMXxFCJoQt0XL6CvZ41yOEOA+j/9oSLSevYJfEux4hxHkY/ZfDQ0KIq6BoEUJcBUWLEOIqKFqEEFdB0bLA5/PhiSd+iNbWdzAyMqL3EkKcAEXLAilal11WgHnz5uKFF17Gjh0tGBgY0EcJIcmEohUGmR/+/PPPw/XXF2P58kuwc2cbfvvb19Q34AkhyYOiZYHH40HX6FI8fyBP5YifP38+rrnmo1izphjt7XtV9HX8eLeuTQhJJLZEy+kr2ONdT7Kz5yL0DfsjLlmkkMlh41VXXYkbbrhOiZYUrwMHPlD7pxVW+cLJ9MDFv1uj/9oSLaevYI93vRGvB9396bhikVd901yKkizyW+kqCaAQsVWrLsPatTeI/WN4+eVXsWtXe1AmB9sYGUcNJxVNs8zpLRuX2wUk3PUrJxlzfiaZRTNcvqYObF5nM43OTBLcqXTjUejPXZ7bAZ+p0X85PLRgVGhP76APe9v34I033gqUlpY3VXn99Tfw2muvq3LoUJfKArF7dzs6Ow/qM8RIcSUq2zaO5ykSjW5jW7E/J5ZMwOaQNLdxpaQeDZVbsVH/0B2bNwINYbKoypzoEJ+R+Ddqts7p+nmFkBA3HplvfrvOXKr3OAGKVgjSnOKp170YHAVePV2AzCWr8dzp67D62mvx5shqXCMe3xq9BtetWYPf+a7D9TfcgHewBjeX3Yz/PrRUnyVWClBWDjTqHtm8qRaF5WKHxGhM+jHgqhL63KgbuPOa9oXWM2Ht4iNpxybjLmveH+E9Ai8NPLdwAzJRUt+AwtoqbG7ejKrG8jB5zMXppPVM+XqUFbYEPiN/ZGY6p7oucZ3Pj19L0M9mvj7XkwQ3HgdB0QrhX14A0pGKOeljONMPbN+TgUU5PvT2D+NLRV70DoyKxzERiYnHj47hrHj8U/1415qJp6xZXr1BdOBNSow2ttVhfak+YEY0xCBXlaDn4Zx7QusFY+3iI2hpQ8EW41xArXLtifAelpzrGhSMThtc0YjyLeGiI38HLS/NR0lZJVoat2nx8Wd1FRcsrkp2VJkjfzuqL1YHlYhVyUyv+mdrKHROjvNJkww3HgdB0Qrh2mXA0zt8ePugD2eHPTjV78PFOaex+8gw9h0fRueJYRw+M4LuXi9OD/jrtB8ZwLa3jynhmjglKJMpcqUobAjTgUVDDIpGzM8jOfeEvs6MilB0NGJ28THlnFfnkjnHY3EHskl+QRQ3PTU01NdSUoZKs6GDGApuUSmAi9BYvgVBmqh8+mTKYX904Y9CphFT7cYTEhU7CYpWCNeLlvAvtw4jO82Lti4vMlJGsXJJLi6+MAfLFuYhf3EeViyeh/xFeZidmYbOo2cwL9uDiusX4/ycDH2WiVEiwo5iVKIsUb1LCpZdF58pQXQaOS8jI7ww/ovKpCPQmSqEDJmHiJFEz3CaKUOTeu30GBopEuHGc05U7BwoWhZcPM+Hb37qFFZdOIqPLRvAoRMDOHV2GH0ikurtH0H7oVN4+Z2D6O3pw8cuPw8fWZyD9LQ4fJRyEnmiIXw0555wRHLx0QTOFek9TO4v55wnjDNMYPK9ZD3qYOUSJIeGLajUw1FVGsxDRC16PXpuzNyJhSDXqB2yY7airrgN7ZPu5E4hwW48+9ot20WyoGhZMObzITN1BA/c5MGcTP881eET/Xh79xG07u5CbsYoPvUHF4ioK0cdcwYRnHvCIV1bwrn4mIYKRY3laFXnCvMegWGaxXnkewTcgEyq0VyjzusftvjnYdoqQqIhNTQMGdoEhohyaCMVS4q8uC4ZrZk7sRBYsUNdT67V8NHlTL0bj2noWNGGurBzjomHbjwWHDvVjzfaT2HlpQtx8HgPjp7oFUPAFFydPw+L5k/M0YJuPISMM+VuPE5fwR7venKB+8nefrz5Xic8o3347NULcNO1SycsWISQyWP0X0ZaFgyPePG7Pd24/JL5yMme3OS6ASMtQsah72GcyUhPRfGqhXETLEJI/KBoEUJcBUWLEOIqKFqEEFdB0SKEuAqKFiHEVVC0bNLVdUQ9/svLXhw/PYTh0Rm5UoSQpEPRsoHMWvrKK6+r7Xs+nopdh/vQ9sEZ9ZwQklhsiZbTV7DHu14oMiNpXp7/e4aPv+JFTlaqymzqlRkDCSEJwei/tkTL6Tnd410vlK6uLsyfP1dty0hr1OvDkvNm48CxfrWPEDL1GP2Xw8MoHD58BHPnzsXo6KgaJspIa8wroq3ZGeg43qdrTTNknq1plZ6YBJgGv1uKVhT27OnA4sUL9bPxSGtwZAwL5s7G/mOTFC4jc+hMdOMx71efgzlHvRm68VgylW486vdhOqcm0C7182RA0YrAiRMnkZ2dhVmzZonh4Ty1T0ZaoyLSGhgcRW5WJt47GAfH6ZnqxlM4nvhPmnmgLkzOK7rxnENC3HgitcskQtGKwDvv/B4FBSuQlZWlhocSGWmNjI6hf9iLIe8YMtIzcHDSw8QZ6sazvg5tG/0/28atldgQJkufzIRKNx4ziXLjidAukwhFKwy9vWdFhJUpIq1sJVgnT55U+9Wclm8MfUK0ega8mJ2didZ9E80OOc6MdOORGTZFtFVV1SjOee61+aEbzzkk0I3HVrtMMBStMMgo66qrrlDbw8PDgXxYMtIaG/Ohr38EXq9P5fwZGPHg+OkBdXzizEw3HhltCUmKcH1047Fkqt14AmmabbTLBEPRskCKlLS+l8NCj8ejttPSUnFCjAK/93w69p+ZjayMNMzJSsXsWam4+MJ5eKdj8tHWzHPjiY4yyQh0JrrxKBLhxiMjNE3C22UUKFoW7NzZhlWrLleCZYiWjKjmZfuQkeLDSPpCNLTlYd+HqUK40rD0gjnoHfTi1NkhfYYJIieRJxDCK1zoxhMduvFYk2A3nsm0yynAlmg5fQV7POt5vWMYGhrC3Ll56B1Ox9NvZeLFfRnoHs5Dy4EU7Do2ine7RrHrqA/f+KUHH/alYE5mKi5btgDv7p98tDVx/HM8rnHjsQPdeMIy9W48zsPov8wRH4Kcyzp+/EMsWHA++kbT0fLhRdjfm4szgx711Z3MNB+6To3g8JkUfP6y0/jMin6kqogM6Oo+g6+UrtJnCoY54gkZZzI54ilaFsgPVA4LDeR2nxj5pYvPUGZ5aHg7BR+7ZAR/9Wn/Mgi5Ul4yKz0N83Jmqe1QKFqEjDMZ0WLvsUB+mMZ8liFes4UWZaQBFVel4lMf8eA75Rm4cF62Kgvnz1YlnGARQuIHRStGls0H/vEWIB4u+ISQ2GHXI4S4CooWIcRVULQIIa6CokUIcRUULUKIq7AlWk5ewS6Jdz1CiPMw+i8Xl9rgq997CcuXzBFb4x/VgSO92HLfp/Sz6HBxKSHjcHHpFJOR0ofLPrJAlAuwUjzKMstDUwtCkgFFywZnT5/G8WMfitKNbvEoy9ke+h4SkgwoWjYYGPKiu/uEKCcDZWhkRo6qrZF5uaZVOuNpzDT4XVG0LPjP5nfxV481495Ht+Mvv7cdQ2Oz0H1ciNXxU7qcxLDY9xf/tA33fu/Xou42vLvXb5s/UYJztceQxsVOI5xIQ5Wvmcj1RCMencZ8jnicz60kwo1HFWclUKRoWfDaW++iq6sDp090iqHhQSyYPSSirTEMj0AVGXnlZQygr+cwTp88hFMnD+OHv3hRvzp2pGCpnFVGorueVpS3G4nuoiATtMXdfUbmgjdlNJVJ9trjlFIuHtc7JT+zu5hyNx75GQeymTorVTVFy4IH774Z+3a/h6Pdp9FzdkQMBT3w+tIx5slQxevLwIg3FZkZszAyNIwjnXtw/1c/q18dK83wu2eZO2E+quv182h3PKOx6Ue/64q/+G+8Fo44tu6iZuOEEtTLZH+hDTvoeRj3HimAgfcS1/S01fUa1xCmrjomMN4v8L6R3X6mL4ly43EmFC0L5s3NwXcf+HOc7O4W4iQ+otRMZMzKwaysPGTNnovs2XlITcvC+/tOonXn+6j5yh/hwgXz9atjRJlFjKc8DkZGPDG434iG6nddEaWhElulPZcUwCBHnH02zqnNDKR4RHTbMWHp3iM60DoVDvivSZT6j+n6ksD16s4Wqa4lUdx+pisJdONxIhStMHxizdUovWGFiKo88KTNgScjB6kZ4jFtNrwp2RhBphCvLJRevwKln75Bv2qyyI6rIw0VUcTofmOqi+UF1iYVNs9ZUq/Fo6zJfz3RxMvSvcciXbIZ8/VGq0uCmWo3HgdHrbZEy+kr2ONdz+Bb996BlMEu5M3NFdFXLs4/b54q8+bmIS9vLrw9e/Gd2rt17QkS5Kwi7pLbhVDIuQR10AGU1AvxakDlJK3CSBxJhBuPA6NWo//aEq3DnTv0VmSmSz2DjPR0PPI3f4Y9rS9g7vlzcd78eZg/fy5yz8vDvt//Bo9sqETmrAxde6JoZxU1nAphog47VhjuLHbOKeeMzJGVis70nT2S644mcM78UpRj/L0iEq6ujfeLq/OMK0iwG49DMPovh4dRuLzgUqxbvQjHDu7G7OwsUbLRfWgvrluZh6sKV+pak0M5q5Q3BkJzGaqjvFTEXRNw2LHC7M6yeXn0c0oBaavwX4u6nkaUyz8UiPOEdd0xDS3G3Xv88yvGe8lS81t/9XOxqLsvwvsZBP1sM2UiXv7YU+zGI29cgSGjsybw+d1DG8jvSf3RHTW48Y//CikeD37103/Ecz9/MqbvEPK7h4SMw+8eTjHyw/3hI9/CLx9/EL984kH85PsPUXgISRLseTZZvOhCfOeBe/APtV/HksUL9V5CSKKhaMXApz9xvSqEkORB0SKEuAqKFiHEVVC0EoScuDcKITOdyfQDW690+gr2eNcjhDgPo//O6HVahBBnEMs6rRkrWlb09vbhyNFj2Lu3UzweR19ff9CiUELI1JCTMweLFl6AFSuWiccLlWiFG0JStEwMDAzixMlTOHToKE6ePI3BoSH4fPx4CJlqsjIz1fd6ly5diPnz5iIzcxZFyw4jI6NKuHp6e9HfP4DRUS9Fi5AEkJ6ehuzsLOTm5CArKxNpaanweDz6aDAULRNyKOj1jgnxGlGPFCxCEoMUKClUaWlpSE1NUc8pWjYwRCr0kRAytRgCFfpoBUWLEOIquNKREOIqKFqEEFfBFfEWsJ41rGcN61kzVfU4p0UIcRHA/wdLdCCpviGxrgAAAABJRU5ErkJggg==;" vertex="1" parent="1">
          <mxGeometry x="143" y="300" width="301" height="313" as="geometry" />
        </mxCell>
        <mxCell id="tzWKhkAwh7brusfRxdNy-2" value="" style="shape=image;verticalLabelPosition=bottom;labelBackgroundColor=default;verticalAlign=top;aspect=fixed;imageAspect=0;image=data:image/png,iVBORw0KGgoAAAANSUhEUgAAAesAAAGRCAYAAABFSpsGAAAAAXNSR0IArs4c6QAAAARnQU1BAACxjwv8YQUAAAAJcEhZcwAADsMAAA7DAcdvqGQAACn4SURBVHhe7d0NcBTnnefx/0jC2EnskJwTNtnds40lXq2kTsbOIefCEa9ckWAdqbYgVWwF684XqeythdHVmQvYplLGL1tmrxBcCq+UkGCqwtWJXIR9IDlwhKXqEPGCtfFiXkdh7Xjzchs7wcFZA5LQPc/TT8/0zPS86W2ekb4f6Jqe7p6e7p5R//p5uufpyNX3B0YU0fSj3yU/N0+ThgcfAQBAOp2TkUjEPvP4z9Mfvf7gcL8ru63y82Zmfnf9+nXTDQ9fl6GhYfM4PDwsVQuXmcehoaG0x2A3v/pP0oaFdUwX3jFdeMd04R3ThXdMF94xXXg3kdOl5mQwP+cu+qJ51J2XvSOq38vgYC7fXvXvJPLB7y6o/mBQJwe33+91wdK2LV2rfwAAIDdVTvYeg6XmMv+xLOlR/U/0/8t750f8UPZL0f5zHdymX/8LhLT6bx41/xEAAGSng9d/DIZxWaTM9JeXe49+p6cx0/7+0jkT1l61ty6aq8fhIRPS8bCOh3Ryp9kHAAAQ4Oeklghp8+AFsO38YNZBXVFeIRUV5fa596hfE3n/t2dH/KDW56ife/5vvDkBAIBJ9Z+j/0FmVMwwge2HtQnsy785M6JDenBwUAZVYG/5b9+Wrds67MsAAMBkaFvXKn/5F1+VG26YkRTYpvStS+letbaY89UAAKA4vOvG/Au+E1eGlwUH6AkAAEBx+Bd6D1/3Qtu/RkyVrL2e6yNeYAMAgOJI/kVWojBtwjqY3gAAoDgSAe0Xom3JesFn6uJBTVgDAFA8JqRNl/jZ9F3/5ksSeeeXPxkZHBySa4ODcvXqVdnxN3vyuhq870cvyfn/0y5lvxtQz3KFfESu31Ip8/4kKrVf/LIdBgAAfPpq8Ie+2iQzZ95grgjXnf7dtfnp1q9/8fdJYf1Cx//IGdY6qCNHm2XJH16yQ/Jz/OezZGTpLgIbAIAUOqy/+udflhtvnOn9fGuG/flWWbm9wCzenKh9RQ7nDm3NP6hnflyk4aDIp5bKv/30JTl9cJsdAQAAgnQW++et/Wpw3ZX5I/0uH2WXL8rgSIVc/8gdInU/EFn6XZEZt9ixATd+QmTFEZE/+LyMlN8o7w1/VK5fftuOBACgdOnGSl577TX7LJ0ep6cpRCKPA/3qX6BRFK/Lx5XrN8hvhz4u1xb/tQz+5oJK7xkiCx+xY60bP6mC+kciH62SkYNN8t6bP5ZrIzOzvEevtKqV8ttK1V1rrx2VRE93n2zTp8oHtsl9fn9eBmTbfYH3uG+bGjLdpG7nQrbfBCv48xyl3tbA+reqLWIGJr5XccFh+Xw/M32/9GuD7xOYRnWFzSfXMnrv09saeH2gAzB+Tp48KUvu+3xoYOthepyephCpJWodmfrRlKx9mYM0WZlK+RvLPpDI1XdleNYic/GYfGyBHavcNFvkT1VQ33KnjPxotbz/3rsmqHOrlfZYYiE76u3gTCrXybGRY7JOvX34jizABEGVnHkisBFeFDmQtqOcCnJsi8B2jrWLRB8q1kFLynImfZ4TRH8PGkR6/O9AbKFcyPs7EPh+qg33RoMfwEpB36/AfHpapHPU88msvsN/fY+0BN4PwPi5++675fix/5sW2H5Q63F6mkJ4f7fphWhzzrpQM8uuyi3llyXy6noZ/MVxGf7lcZE7vyIy/2sqqG2J+uY5Jqhl4V/Ihx7cL1Jxk74mXGZEBu1cJpMqqTwUlbt6Ug4AVDisy3VAMMVVrntCWvq65EBx0nryxc5IX+1CqbJPR/0dqJwrd8kbcsFstzF8v+obVZiOw3wAFEVqYI8lqLWwoNaPSSXrfA2PlKuuTK5cG5YP/uHbcu344yKvPChy6bzI8sMqqO+IB7V86gty+eh6iQz9XmZVXJKKyCjaHzelDa8a775tF+xAzS+Z6ccG6ZQ+iVap6VLrFQcOSFdfizRm2+EF3kN3iVnY9+hNjNfjBrbdF5/2vnjRMH3axDgl13tsS1TPZn5dSrVt2mtybIusvHm2tup1s+9TwHbJd5m9+evhqctp5+nPJnQeyVXEBa2epsOxLyoPBZd1NHr3SWfLE14tQD7fr0z0fGpXyfKxzgdA0QQDeyxBnc2owvrayAx5d+hWuTJyk3n+wfWb5Po7fy9y3/Z41bcf1O8dbJXyD31Cbp5xRS4P32yCPjO7407aOasdeJVX2tBHFy9Kl9rBp6qXjmB1X1j9ebA0lSb5PbwqzkBo6OV6WuRFPc5UW0bkIbUkZlr1vC+6xS6rFpjWq2O288njPc40hsxTv65LVsWrTUWejr8o7DV5bIuAgW1PJ8LC6JM3Fup161BzKmC7pK1r5mX25q/HZVvODPPo3SLRu3rs6/M4VZJGb5+YrOqqGkXYq/X1v5+6Kj345lm/X6kC89mnPr9j6yS++QuaD4Dpouyzi9Vep0C6dHxj5APT6artkRs+JsMNqkT90XlpQT3zXy+TjyzdIlf/+M9kSIW8DvrMAufyTFgoAxfkjdp2eczuF021rddbmL4zErO9afR7qLnGSzSV6+SJlj45E3+BWq4X7Q7VVFvWyio/3ZKqMbXAtMH55PMe/koG52leFwwJVRaNvyjDa3JKzK8qepf0BMMiuG6FbJe0dc28zPH5Z5NpHlULpbazIbkUHxRaGk9VKeuOqe+YOfgoJLDV+vrfz9hCeTpYC5Dt+5XGzke9f23nvuRlLGg+AFwQrPoOVomPl7s/96CUvX5SFVkKpM8731Jx2XS6avvDn/1PIoMfyPDBP5PBjy2WwbKb5b0ftkj5DR+WGz5eKe8f2yRXL3q7pKJcj1q5XFbVdsq+gkpR42FALrxhe8ekJXFBlO4KL06mCISOf1A0ZqnrOh7LHDIPdVBwTPW/KA+ZQE4LWjs+r3VT077YXiud5otRJQtrvcFx5oDhLpkbdmxhvlP24GS03y/z/m8kah1yzqfAZQQw4VLPUaeewx4Pr7368uiqweMiFTJj/lflhvdel+GXl8rlN4/Jpb/bLpe6H5TBfzwgM2Lflt/+4EH54HWv4tqUxsuumP686Qt5+qKyxe7ATLWt11sAVZJ6wqu+Ttq5q1LYNv3cXCwU2Emq4U93jvbcYZ90+VdrBc9BjvY97OsS1ciTKOcyZ1/XMS1zjnlUrjsmMRW0b+RXlZDQqz7z+EsG5EBXn9Qu1BXPlTL3LlWSD1wZ37slKn0tjeGBb9a3VsxLc32/stA1RXfFTx/kmk+BywhgQmW6mGwiAnuUYW3Lx/q31RUflopP1sjgH31ZKmr+q8y8c4XMmHWHfHTJ12Vo4Top++RiufmL2+Qjf7BQbi6/nHhtqEC1p+q8qs566bDnifWwh2SVKm+FqZfGFvv6sHrN+o54tac//8hDIsvNXk69R3CcOVc62hJnrdx1xiv1Rcz5Xn8+o30P73VqxRLLHbZ+SXJsi7zlWubs65p7mbMtZ4Z5BH4jravwnyj0d171c+VM/DtWZc5/H7PzqO+ISbtEpcrOv+GNdokl1QgEvp9mWwR+Zpb1+5VNvTxmTvfbAM4xn9zLCGCyLF68OC2ofX5g62nGQ+RXb782Mjg0KNeuDcqVK1flWzu7crYN/p0N/17+4x1HRT7zX2Rk8LKM3LlaLr/+osysfFCG3j0jM391UIbmPyKXfxSV8ltuk1vuXScjP3tF3r/wsnT/7DPy8F/9rZ3TVNMrrZGnZWFwJz5lTad1BYCJp9sG/8rKhnjb4H774OXlZaMrWc+va/NuynHmBblyU6Vcfe/ncu3tIzL0T38rN90g8rtLvzG/v77pM18zv8ke+f0v5f13fiYnfn6zLHigzc4FAADkY1Rhre+ape+e9Z3Y52T3dzvkxf/+pPyvn5TJ//z+D+Q7O78le//u97Ln+/9b9uz5nny/75/lu9/eId//SYXcfP927rgFAECBRlUNDgAAxte4V4MDAIDJQ1gDAOC4UbVgBgAAJseoWzADAACTY+wtmAEAgAlHWAMA4DjCGgAAx4X+zvobTz1vRwMAgMnwjU3r+Z01AAClirAGAMBxhDUAAI4jrAEAcBwtmAEA4DBaMAMAwHG0YAYAQAkgrAEAcBxhDQCA4whrAAAcNyWbG33+eZpLBeCu9evX2z4gIVtzo1M2rJ955hn7DADc8fjjjxPWCEXb4AAAlDDCGgAccf/99xfcYXqgBTMAcMjJkyfz7jA90IIZAEx1F3dIXd0OuWifFmQsr51Iri7XBKEFMwAoMW+//bbU19fLD3/4QzskT8UKuFIP1uDyF3FdxhzWdbNmSd2OwKK79sEMtEttJCIR29W2D3jDattF9SX4w1Km111rb2CawHAzLwCYJDqoW1pa5M4775QvfOELdmie5jwqhw49KnPs00lTrPedCEVcl7GXrO9plkXdrRLMa3f0SmtVl6yKjcjIiO56pPpszI7LYslWiZnpVRfbKqc222CPnZXqnsC82tYIeQ1gMgSDesuWLXLTTTfZMSF0oUkVpGbprmajnPCH2YLUxR113jjd6WFmXFSidXaY6qKH9IsSkl4zq87u8y/KDvWaxLSHJBofZ/nvax93RDO/h5a2bGaonm/gdcfMQHklbF7BdfeXJWX9ooe85Q6+LuP6tartd2Kj1KjhdZs3x7dh2jKFrMt4Godq8Lmydv0i2bg9fUlDVz6PjRa6sePDU74IOVXLvErbK/XS0VFv+/OkAvp49Twxs6jvkMTLq2TBEtsLAONEV2/ram4dzr6CglqHiAroRXsvyaVLqut/Vu6xYwy1H23duEj26nGq27vogvxUDz9xWuZ22NfsbZZdK6NqTglzHj3kjTPj/X3+HHl0vZr2gJ3y0AHZ1bxeHs1U9FShd2F54D2e94PPCl02nRErRQ2Mv3/7fWra0Hnpdb8g6+10l/qbpLvVvoe/fmbdWkX8frsMGdevQ22/e56VfjX80J//Kz0nJWSZ6uyoCTI+56zr2mWvrEw7sghfeSXrRsuysQtWL40tndKgq63jddl5ON4mVX51d8Mp2fpYSMAP7BdVZpcV8QMBABg7Xb2tQ1mHsw7pwoJauRiT0ypc1mYKjzlVskh2ycpZXhjXtbeLmfSeJvmSH7J1y6VZTksscbxgC0u2ELVyl8jpmLdf1tPuOmDmdejALmleniW1gst159zkgwgtbNkuviLdErI+YfPS625eb5dT1yqcsAcj/vrpaYP9epyWaf3CZFqmCTRuF5jVrX1WToccJYWufLaNlm1j6/MFlw5lPmoLUd9hq60b93nhm09oJ1WDr5KuNSnnt/3q9d1Rr8QNAONEh7EOZT+wCwrqvNRJuykMLZcDZj+bXIIOpfflNd3S1O8XooKl9TpZ3rxLDhw6JAd2NUu2rM5tFMuWypaC4wXFS/ZgJJus6+eGcQtrHaQdTd2y/RX7fCwrP5qNnUt9hznP3NK5T0VtASrnSfXxs5I4062COrJZFsT6JEpSA5gAwcAuOKh16fREt7xiS04XX+n2zln71L45as4l6mDsl2fvSSlBa7o6Wxek/tg+1/yClZI6T1NYW7lSTj+7dmz76rBlky9Jk2yUkDOt6cy65zltqizrJ36B0TengGUaJ+MX1sqcR9eLbLQXM2jZVj6TbBtbHwAUcs5aX70dLEkPnJdTSxZIlQngLtkfKC4P7O9KnJsO6t0nnfo1ut9cDU5QA5h4Opy/+c1vmq6wErUKOn3ascarnWy9sCi5oKT2sWqkV3M5q0a6mzrkUR3K9iIqryZUZG/wqmdVGFu/KDE+fZ4qvO65R5r8Hf5ohS3bHO+88emVdtlU519glk6tuyoYBqdNXKSWRbb10+Oavdreuu+96w9MX6YJDu7I7NmzR07++KVR38hDXxnXEfxQD0Vl1vNzpV8N+2l0lujab+2e5maR03Olo0OkVZ+m1q/R4Zup37+CUdMl7fhwXVrPXhWeuJHHgLTXVknbcW+4yBLZ6getDt6qNkmM2iqxvqhUpg6XFukZ6RB91nqgvVaqEjMzlmyNSR/JDSBP2W7koZsPLaRlssWLF8vhw4ftszEI7n/toIIE9vtjjOtpLdONPO6tbeSuWwAwmXKFdaFcCOtDqmB2YPnEXxE91XGLTABwBLfIRCbcIhMAgBJGWAMA4LgpWw0OAK6iGhxhpt05awAASg3nrAEAKGGENQAAjiOsAQBwXNlnFzfYXgAA4Jq7P/eglL1+ssc+BQAArnnt1ZepBgcAwHWENQAAjiOsAQBw3MSHtb6bi73fp9dFZRLv1+3Ry+Df0zTYDwBACZickrW+H/WlS3JJd3tFVhYzLOc8Koe45yoAoIRMfjV43XJpPnFBfmpLuDuigdJ2Uik8MKwuKtE6f/gsifpF86Tp62SHPgJIm+9F2dG6UU6c2Cg1arq6zZuTS9mprzeD6+ww1VEKBwAU2ZjbBn/nnXdsX7hbf9eVdFNzHYQ13U3S3yHSWrNRFu31b1h+SKKzVorY52a6C+vl0tqY1NV0S1P/IXlUz+BQVLzJlsuBWQdk+aV2MS/XwavfJ22+gXF6GeL9VbI94+svyHo7/FA0KtJup1FyrS8AAL5bb73V9uU2oTfy0OGVdWF0CKrwPGGfmirxpNC0VdJhz3Vo9s+V54PDTag/L3NfapLuLwfmazTL3rTpleC8/X4b6mmvNwcBK2WX6U+ENAAAhciZjymy3shjUlowC56zDoboWAXna7oCwzX09XXSbvp1aPtV6QAAFIdbLZjNqZJFJzbKdpuMF1/plhPNy9PD99AB2XVPk3xpafL0Oenz5LbXSHm/OFXyjpqT1zq0++XZe05LjJPWAIAicawFMxWO/c/K6ZXehV01GxfJXv+ks704zFzwpc9Xm9J58vRZLwab86isb94lK9U0dd971w7M8HoV4rKxxg6rke6mDu9cOQAARTLx56zHKvVcNgAAJWBcz1nbaQAAgKPcD2saMQEATHOUrAEAcBxhDQCA4whrAAAcR1gDAOC4yWnBDAAAjIpbLZgBAIA0jrVgBgAAwhDWAAA4jrAGAMBxk9Y2+PYXdtk+AABK29pHmm1fZuPZNvikhvWTX19nn6HYfvGLX8inP/1p+wwYH1Ple8XfBzLR342du/dOelhTDQ4AgOMIawAAHEdYAwDgOFowAwDAYbRgBgCA42jBDMhloF1qa9tlwD7FJGG7A0mmb1jrnUEkIrXtgd0BO4ipL+0zHpD22loJfg0wyezfYsR2SX+TyCxlu+mutdeOG2/57BuD0+QzPQoyvUvWS1qkumsNO+rppHKFrJIu2e9/5gP71bNVsqLSPsck65XWKvUJxEZkZER3PVJ9NmbHIaclWyVmtpvqYlvlVMMEBXZlVPr6opL3n0mh0yOnaV4NvkAee7Ja2rakf7sH2msDR6y25GWOFlultdY/itWlspQj2qSjXUps7qmUFatEuvy0jp0VWbXC7FRCP3NfakkhtRTBZz4G1TIvvlevl46Oetsvsr/V366Z/sZaVdzbYUmfhx2uhrSrv9n0v/ApSAekDuzN2b+XSd/z+HdaHTTFp1Xbeqe3PdvN9lfbz9++5jGxDzTTeh+AtK9pk+PH26RKDat94vEMfx/Jn5c3/+B8kAnnrOs7pEca0r4oldE+e6Svup5AoB8/JQt262Et0tmwRsTvN38gupRwVp6MH+mqMtwa/48BrqicVy3Hbemtd1+nVNukyPiZZ8VnPjb10tjSKQ16h536R6h2/Gcb/c8j+DfWJtU93vDY1lPSoF9XOU+qj58V/akO7O+S6haRfWZ2MTmrDsqrdO90EN8OGb6XKiTXtFVLjx3eU62n1Qc0DaIGetOqrmOpmld8+3eoTynA3wfqac1+UAdwpUR3b5UltqTf1/wJO3GGz0sL/XyRCWGt1D8WOBr1BY8GGzpFTp33xi+xVaZVC9QXM9Cvxw2cl1Nidzy6U1/S43YHAofUN0pL5z61GxmQ86dapNHfE2X6zLPhMx+z+g67w27c521Df2eudvyP+Z9N8G8sMLxyxSpZYj5LHfqn5Lz6wGJnq6XxsQVySqe1nr563vSrjs30vdRhboZ7Jdz6DhXE5lRQYFv7gts/yN/vafpvSb2T3u6hMn5eStjni4wIa60yKrtXdcmW/fa53mkHz6PF1BGjHZWT+gLGzyGZLuWoFA6wO/ZetZOqbvQ+Hz7z4qvvUNuuxx5IFU7t7+VsrFf2nVIlaX1twik1n9hZqY4fjU0DJhxtTULo97JeOkx/o+wzQT5NThFMAYS1VRl9UqRNHX3a58GjR12tFh+ejamCapO8ak9RVPWN1dLW0Ja8I8/1mQdKzPHxfOZjow+SgtXfwbAJk7K9zefQ4h1w6VKbbN4sp8w1CN61Cfv2iSyYNnXgtsr5yahUZvpequ3dak5e69COydYl6qBV9EWXo/wO9+6TzmBJO7VWKcvnhcLQglmc+vL2tHi9qqT9ZLV3oYSuQlpztjrPUpaah70i01Q96S5+AQecYqrvAlXguT5zXfuiz7eljeczHxNTAm5IbDtdu7E721XEydu7Sp9/9S9IU8Ggj6BW2eTQTztVKTseJFORCkL/OxuJbJYFsRHxNkeG76XeKG1VdliVdK3aLdFK73xzcNrWo2bu4YLvqU91+1d9678he/1B7a5fm0mzfl7Im27BjFtkTlPcAhATgVtkTnG6JkRfVzuNf5bFLTIBAEAowhoAkJ9KGjspFsIaAADHEdYAADiOsAYAwHGE9TR1+fJl2weMn6nyveLvA5kU67tBWAMA4DjCGgAAx9GCGQCUmt7WRGtjo2kmdKLpxlNoyW/c0ILZNHb+/HnZvXu3fYap7plnnrF96SIbztm+sRl5br75Xs2bN88OKV1ur0evtJqmRfsk6uoPniezpbPge03C++rvRlf3K5PeghlhPU35YZ1tJ46p4fHHH88Z1v1/ebvM/kiFHVK4P3xugLCeLDqQzL2qHb67W7HC2g6aSMUKa85ZAxhTUE95Ogxq26W91d68IlD1PNBeGx8WidSKuaGVmb5VWmv9aQekPd7vvc5Mk/q6VEnT+Ley9O6sddy/V3VaVbMudfuvsePt8senS3qePL1evqR1Spt/pvEp87E3Atkfss1C190sU/ZtFrqt1bu3r9H36vZuLlL7xONZ162UEdYAkIsKg7ON9r7QPS3SudkLhMpoX+J+0T3V0ubfC/L4KVmw207boIt9wdfpwNUlY/u62CrpWpMainqaNqnu8aaJ6Tu+mbTx7mK1xL9XdVJpUgecvg2WP99c92RPmV51HVXtskbfGcs+76lOueWlCtX08SHzWaqmDd1mWdY96zbLtK29O4b526Ov+RN6TkrIMpX4zb4IawATZvHixQV3TlJh8Ji/s69akAjBYCmxoVPk1HkvePx7POtpg/16nL5nt18y1p0uKafeB9rc1zvxnvpe3Us696moyyYmZ48Hbvuay8B+6ZLAemn6/tNm2bySfH1HSlV72Piw+Whh2yzbumfbZlqmbR0m0zKVMMIawIQ6efJk3l1J0eGh778ds6W3nCXZAL9kHO9cOf+sSu5meRplnwlGv/rdl2t8Hkaz7mPZ1lOEm2GtP5iQcyUA4BS/BKgM7O+S415vdrp0erxN/BrzUCnTmHm3NOYItSpZsKRT9oXNN1Byjy9n5QpZJSnLofa9reZksA7lmGxdckrOB3fEYeMlZD6Z5LPumWTb1qk1E2HrVuKKE9Y6jP3qjHinjtAIaQClojIqT1Z7Fzbpfdias9V5lva8886nGgL7v7T9XvI0Vfo8cc6Trt752/h8zYVoenBUdutz3va9EsuZMr3qWmPzRNqq7PMq6Vq1O/nnYSps08eHzMdeYJYun3UPkW1b63EtXtV67a5f+wPTl6nEg7s4P93SoZztUvtc4zFm/HRr+sjnp1s/3zC2v7RMP93S56ALqd4udPqJMiV+gsZ+dEIU7adbTrVgFlay1sPskVHGnzgAADBF6RbMyl4/2WOfTrLjiSoNrwu7UCGfnzgAANJURqWPUvWU8NqrLxfxArN8rgjM5ycOAABMce7/dMvZnzgAmFZSb54RdtoOmCBuh/VYLvMHULiL2+TBjz4iP7JPcz6fNnqlteGUbNW/89VXM9tWtYDJ4njJepSX+QPAeDKn5Kplnj4BzLlgFEFxwjrTl90fHhyv+4PV4PyRABNnzjp5+b0X5Iv2ac7n04LXTnf85hk1TVLDr1Ywydw/Zw2gpAXb/c7Vucmr4YvfPKNrqdxox3j41QomHmENYMIE2/3Otys5/GoFk4CwBoCx4lcrmGCR2bNnj5z88UuT29wois5vbhTTQ7GaGy1VaesRbLrT71d/PmvMsHmyJeLdO7nU75mM3IrR3Oi9tY1FahscRTdVdqoYOx3W42H6hrUd5t84Q9MlbS6GnZKKEda6bXDCepoirDERpmxYA1axwppz1gAAOI6wBgDAcYQ1AACOm9Rz1quavmSfAQBQmrjADAAAx23+q21cYAYAAJIR1gAAOK7ss4sbbC8AAHDN3Z97UMpeP9ljnwIAANe89urLVIMDAOA6whoAAMcR1gAAOI6wBgDAcYQ1AACOI6wBAHAcYQ0AgOMIawAAHEcLZgAAOIwWzAAAcBwtmAEAUAIIawAAHEdYAwDgOMIaAADHEdYAADiOsAYAwHGENQAAjiOsAQBwHC2YAQDgMFowAwDAcbRgBgBACSCsAQBwHGENAIDjCGsAABxHWAMA4DjCGgAAxxHWAAA4jrAGAMBxtGAGAIDDaMEMAADH0YIZAAAlgLAGAMBxhDUAAI4jrAEAcBxhDQCA4whrAAAcR1gDAOA4whoAAMfRghkAAA6jBTMAABxHC2YAAJQAwhoAAMcR1gAAOI6wBgDAcYQ1AACOI6wBAHAcYQ0AgOMIawAAHEcLZgAAOIwWzAAAcBwtmAEAUAIIawAAHEdYAwDgOMIaAADHEdYAADiOsAYAwHGENQAAjiOsAQBwHC2YAQDgMFowAwDAcbRgBgBACSCsAQBwHGENAIDjCGsAABxHWAMA4DjCGgAAxxHWAAA4jrAGAMBxtGAGAIDDaMEMAADH0YIZAAAlgLAGAMBxhDUAAI4jrAEAcBxhDQCA4whrAAAcR1gDAOA4whoAAMfRghkAAA6jBTMAABxHC2YAAJQAwhoAAMcR1gAAOI6wBgDAcYQ1AACOI6wBAHAcYQ0AgOMIawAAHEcLZgAAOIwWzAAAcBwtmAEAUAIIawAAHEdYAwDgOMIaAADHEdYAADiOsAYAwHGENQAAjiOsAQBwHC2YAQDgMFowAwDAcbRgBgBACSCsAQBwHGENAIDjCGsAABxHWAMA4DjCGgAAxxHWAAA4jrAGAMBxtGAGAIDDaMEMAADH0YIZAAAlgLAGAMBxhDUAAI4jrAEAcBxhDQCA4whrAAAcR1gDAOA4whoAAMfRghkAAA6jBTMAABxHC2YAAJQAwhoAAMcR1gAAOI6wBgDAcYQ1AACOI6wBAHAcYQ0AgOMIawAAHEcLZgAAOIwWzAAAcBwtmAEAUAIIawAAHEdYAwDgOMIaAADHEdYAADiOsAYAwHGENQAAjiOsAQBwHC2YAQDgMFowAwDAcbRgBgBACSCsAQBwHGENAIDjCGsAABxHWAMA4DjCGgAAxxHWAAA4jrAGAMBxtGAGAIDDaMEMAADH0YIZAAAlgLAGAMBxhDUAAI4jrAEAcBxhDQCA4whrAAAcR1gDAOA4whoAAMfRghkAAA6jBTMAABxHC2YAAJQAwhoAAMcR1gAAOI6wBgDAcYQ1AACOI6wBAHAcYQ0AgOMIawAAHEcLZgAAOIwWzAAAcBwtmAEAUAIIawAAHEdYAwDgOMIaAADHEdYAADiOsAYAwHGENQAAjiOsAQBwHC2YAQDgMFowAwDAcbRgBgBACSCsAQBwHGENAIDjCGsAABxHWAMA4DjCGgAAxxHWAAA4jrAGAMBxtGAGAIDDaMEMAADH6RbMIr96+7WRwaFBuXZtUK5cuSrf2tkl33jqeTtJbu+8847ceuut9llm21/YZfsAAChtax9ptn2Z5ZuPvm9sWi9fWdkgN944U264YYbpZsyYIeXlZZMX1gAATCfjGdZcYAYAgOMIawAAHEdYAwDgOMIaAADHEdYAADiOsAYAwHG0YAYAgMN0C2bj8jtrAACQzplGUQAAwNjRKAoAACWMsAYAwHGENQAAjiOsAQBwHGENAIDjCGsAABxHWAMA4LjI7NmzR07++CV+Zw2UiFl/9Uvbh0wuff1Tti/c4cOHbR8yuf/++21fOLZhbrm2YapMv7O+t7aRRlGAUkNY55ZPWC9evNg+Q6qTJ0/mFdZsw8zy2YapaMEMmEL8sH7rkQ+ZRyTc9sK/mEfCemwI67Eb77DmnDUAAI4jrAEAcBxhDQCA4whrAChFb+6Upqad8qZ9ihBTaBsR1gDy8ubOJrntttviXdNOuwtM3SEe2WDGbzhin08Xdr3j3bTbAOPtTdnZpLYjByQGYQ0gJx3US/evkKNvvSVvmW6XzH9qaSKwfTq4m8/JpqNvyXPL7LBpwBzINIvsim+ft2SXHBTiegzePCz7ZbX6t18Ok9aENYBcjkjHUyKbtj4st9shIsvkuaObRPYfTpR6dFAv3S8rjnbLw4kJp4E35fB+tX2OPqe2SsKy57znyTUSTWKOb2xtxM4N/vBgTcQR2RCf3g7X08eH2XlMcW/qjbqiVR6Y36++ZnaFzXbbIBt0iTt1+4QNj/NK6cnbuLS2Y9lnFzfYXgAI8eZFOVezQu5PDeDb58j8/gH5R/Nkv7RNy6BWdAmwf77MybDetz/cHS9tv7VrvjzVYROj/ykZeMAfvlr2bNfVvTpUTBE9/prnlqlgWToga/15HF0h+9umetWwdwC0Qn3plj2wWvqDB4X956Ryq90Wers1b/BqMDINN26Xh9eqYQftkCMHZc/qtSXzXb37cw9K2esne+xTABilfrVj3aSCaMqHSAY1lXKH7U0TLBU37xE5d9HbRjWbpNUvit9RKTX60VT9BoZr+mBJ9kizP4+lT0l//CBpijLbwR4gLntAVvcHqsKDB456nNo6F/9J9Wca7tPD9ninJo4c3COrHyid8zSvvfoy1eAAcjAl6JDzhqbEbUNK7ygffk6OrtgvS5PrH6e+TNtH00Ftahxsie/oJi+UC6WCPXG9gO6Sq9ynGl0F3t//lCw1ByjN6lAlUBU+asvkgdV75OCRI3Jwz2opoaw2CGsAOSyT1k2SUmrWVbNP6XrKwHlsXeW7VTada06/8GxKs9tnabDaVW2hDfZ5oMRnQsjrDXf7/ao8+ZT4NeWGORhIGTal6SrwflkdOBWgq7WTqsJ9ujpbb98/ss99GYYvUx/UueZmObepteQOdghrADnp866m1OxXxXqXPkt32km/2+Xh7gxXik9hZvtsOpeoqlZdszwgy25/WNbO90uIt0nbwPwcJWu1/bbqQEnMZ8MR72K+4LAp/XOmsFMBflW4rtaOl7hVp7+G3fbCx0zDg/TBUE2NORdeariRB1BiuJFHZtzIY3w4eyMPfVqhTWRrahBnGp5K/xZ+e6UczTXdOOBGHgAAjIK5sGztxAf1RCCsAQCl4faHpTu0ejvD8BTLnivdxnoIawAAHMc5a6DE+OeskRnnrMfG2XPWJWS8z1lHZs+ePXLyxy8R1kCJIKxzyyeskV0+YY3sxius761tTC5Zf/DBFfn2d/YS1gAATLLUsJ4xo8KEdUVFeeKc9cjIiO0DAADFoLPY73y6nwvMAABwHGENAIDj4mEdiURsHwAAKAadxX7n0/1JJWsCGwAANwRDu4yABgDADTqS/ZD281k/UrIGAMARXkinB7YqWacPBAAAk6+srCwpk3Us68ey6pp6r8dOAAAAiiM1pHVXc++fStnpn/xQFa+9oC4rI6wBACgWXXAuLy83nR/WPzlxwLvAzA9qPREAACgOfdMOv6bb5LItTEd+8//+YWRoaEiGhobl2uCgtG/fZV8CAAAm09ceXpXUJnhFeYV3163f/vOpeFgPDQ/J4KDuBmV4+Lrqhs3j9etep9snTTwm2i/VHQAAyMyvyfZLzd6jV5LW1d46nHVQV1T4XbmUl+kqcRXWl379xogXyl4w68DWwa2f62D2w9oPaj+kdb9GWAMAkJsf1FqwqlsHtRfYfmh7pWk/qM20771zesQL4URJevh6clDrzgvoYMmasAYAIF/hYe2FdKLfBnTE6/evJ4v87t0zJqx14PqlaT+UdWiHhbQf0Oq/eQQAAMmC+eiHtBfYieDWQZwIbhvYqkTtDQ+Mv/ybM2Z+wTD2ukBAj/jj/JBO7wAAQGZ+QKd28fPX8Z9RpwS1nu79355VWasDNzmw/cdgQPuh7XWJowb/EQAAhNOh6z/qXu8xEdKm36/2Nv3+Y5n8f/6jnsj7FPW+AAAAAElFTkSuQmCC;imageBorder=#FF0000;strokeWidth=4;" vertex="1" parent="1">
          <mxGeometry x="493" y="256" width="491" height="401" as="geometry" />
        </mxCell>
        <mxCell id="tzWKhkAwh7brusfRxdNy-3" value="" style="rounded=0;whiteSpace=wrap;html=1;fillColor=none;strokeWidth=4;strokeColor=#FF0000;" vertex="1" parent="1">
          <mxGeometry x="743" y="370" width="30" height="40" as="geometry" />
        </mxCell>
        <mxCell id="tzWKhkAwh7brusfRxdNy-4" value="Click the 3 dots on the right to open a file explorer window, where you can choose your desired .sch file." style="shape=callout;whiteSpace=wrap;html=1;perimeter=calloutPerimeter;fillColor=#f8cecc;strokeColor=#b85450;direction=west;fontSize=16;" vertex="1" parent="1">
          <mxGeometry x="618" y="410" width="280" height="130" as="geometry" />
        </mxCell>
        <mxCell id="tzWKhkAwh7brusfRxdNy-6" style="edgeStyle=orthogonalEdgeStyle;rounded=0;orthogonalLoop=1;jettySize=auto;html=1;exitX=1;exitY=0.5;exitDx=0;exitDy=0;entryX=0;entryY=0.5;entryDx=0;entryDy=0;strokeWidth=4;strokeColor=#FF0000;" edge="1" parent="1" source="tzWKhkAwh7brusfRxdNy-5" target="tzWKhkAwh7brusfRxdNy-2">
          <mxGeometry relative="1" as="geometry" />
        </mxCell>
        <mxCell id="tzWKhkAwh7brusfRxdNy-5" value="" style="rounded=0;whiteSpace=wrap;html=1;fillColor=none;strokeWidth=4;strokeColor=#FF0000;" vertex="1" parent="1">
          <mxGeometry x="203" y="350" width="230" height="20" as="geometry" />
        </mxCell>
        <mxCell id="tzWKhkAwh7brusfRxdNy-7" value="Pointing a Subcircuit Component to a Schematic File" style="text;strokeColor=none;align=center;fillColor=none;html=1;verticalAlign=middle;whiteSpace=wrap;rounded=0;fontSize=30;" vertex="1" parent="1">
          <mxGeometry x="103" y="210" width="895" height="30" as="geometry" />
        </mxCell>
      </root>
    </mxGraphModel>
  </diagram>
</mxfile>
